<svg id="a" xmlns="http://www.w3.org/2000/svg" viewBox="0 0 180 180"><rect width="180" height="180" fill="#e6f4ee" stroke-width="0"/><polygon points="54.39 151.67 18.79 90 54.39 28.33 125.61 28.33 161.21 90 125.61 151.67 54.39 151.67" fill="none" stroke="#d1d1d1" stroke-miterlimit="10"/><polygon points="61.32 139.67 32.64 90 61.32 40.33 118.68 40.33 147.36 90 118.68 139.67 61.32 139.67" fill="none" stroke="#d1d1d1" stroke-miterlimit="10"/><polygon points="111.75 52.33 68.25 52.33 46.5 90 68.25 127.67 111.75 127.67 133.5 90 111.75 52.33" fill="none" stroke="#d1d1d1" stroke-miterlimit="10"/><polygon points="75.18 115.67 60.36 90 75.18 64.33 104.82 64.33 119.64 90 104.82 115.67 75.18 115.67" fill="none" stroke="#d1d1d1" stroke-miterlimit="10"/><line x1="54.5" y1="28.5" x2="125.5" y2="151.5" fill="none" stroke="#d1d1d1" stroke-miterlimit="10"/><line x1="54.5" y1="151.5" x2="125.5" y2="28.5" fill="none" stroke="#d1d1d1" stroke-miterlimit="10"/><line x1="18.5" y1="89.5" x2="161.5" y2="89.5" fill="none" stroke="#d1d1d1" stroke-miterlimit="10"/><polygon points="58.57 35.56 43.98 89.5 72.47 120.37 121.45 144.49 140.22 89.5 108.5 58.5 58.57 35.56" fill="rgba(131,181,157,.5)" stroke="#4faf81" stroke-miterlimit="10"/><circle cx="59" cy="36" r="2" fill="#4faf81" stroke-width="0"/><circle cx="43.98" cy="89.5" r="2" fill="#4faf81" stroke-width="0"/><circle cx="72.52" cy="120.28" r="2" fill="#4faf81" stroke-width="0"/><circle cx="121.45" cy="144.49" r="2" fill="#4faf81" stroke-width="0"/><circle cx="140.22" cy="89.5" r="2" fill="#4faf81" stroke-width="0"/><circle cx="108.26" cy="58.36" r="2" fill="#4faf81" stroke-width="0"/></svg>