<?xml version="1.0" encoding="utf-8"?>
<!-- Generator: Adobe Illustrator 27.8.1, SVG Export Plug-In . SVG Version: 6.00 Build 0)  -->
<svg version="1.1" id="レイヤー_1" xmlns="http://www.w3.org/2000/svg" xmlns:xlink="http://www.w3.org/1999/xlink" x="0px"
	 y="0px" viewBox="0 0 12 24" style="enable-background:new 0 0 12 24;" xml:space="preserve">
<style type="text/css">
	.st0{fill:#FFFFFF;stroke:#000000;stroke-miterlimit:10;}
</style>
<path class="st0" d="M4,22v-7H2V9c0-0.6,0.2-1,0.6-1.4C3,7.2,3.5,7,4,7h4c0.6,0,1,0.2,1.4,0.6C9.8,8,10,8.4,10,9v6H8v7H4z M6,6
	C5.4,6,5,5.8,4.6,5.4C4.2,5,4,4.5,4,4s0.2-1,0.6-1.4S5.4,2,6,2s1,0.2,1.4,0.6C7.8,3,8,3.4,8,4S7.8,5,7.4,5.4C7,5.8,6.6,6,6,6z"/>
</svg>
